<?xml version="1.0" standalone="no"?>
<!DOCTYPE svg PUBLIC "-//W3C//DTD SVG 20010904//EN"
 "http://www.w3.org/TR/2001/REC-SVG-20010904/DTD/svg10.dtd">
<svg version="1.0" xmlns="http://www.w3.org/2000/svg"
 width="1024.000000pt" height="1024.000000pt" viewBox="0 0 1024.000000 1024.000000"
 preserveAspectRatio="xMidYMid meet">

<g transform="translate(0.000000,1024.000000) scale(0.100000,-0.100000)"
fill="#000000" stroke="none">
<path d="M5087 8199 c-16 -16 -35 -29 -42 -29 -8 0 -21 -13 -30 -30 -17 -33
-25 -36 -43 -18 -9 9 -12 9 -12 0 0 -7 -6 -12 -12 -11 -7 1 -26 -3 -43 -10
-89 -38 -136 -60 -204 -93 -41 -21 -81 -38 -88 -38 -8 0 -16 -7 -19 -15 -4 -8
-10 -13 -14 -10 -12 7 -190 -76 -184 -86 3 -5 -1 -6 -9 -3 -8 3 -18 1 -22 -5
-3 -6 -15 -11 -26 -11 -10 0 -19 -4 -19 -10 0 -6 -3 -9 -7 -9 -20 3 -34 -2
-28 -11 6 -9 -8 -14 -28 -11 -5 1 -42 -14 -83 -34 -41 -19 -78 -35 -81 -35 -4
0 -14 -7 -23 -15 -10 -9 -27 -17 -39 -20 -11 -2 -33 -10 -48 -19 -16 -8 -44
-20 -63 -27 -19 -7 -38 -17 -41 -21 -3 -5 -15 -10 -27 -13 -25 -4 -98 -42
-123 -62 -9 -8 -25 -15 -35 -18 -43 -8 -334 -146 -334 -157 0 -5 -3 -7 -8 -4
-4 2 -23 -3 -42 -12 -19 -8 -37 -16 -40 -16 -25 -7 -79 -40 -75 -46 3 -5 0
-12 -6 -16 -8 -4 -9 -3 -5 4 4 7 3 12 -3 12 -5 0 -13 -5 -16 -10 -4 -6 -10 -8
-15 -5 -5 3 -15 -1 -23 -9 -8 -8 -17 -12 -21 -9 -3 4 -6 0 -6 -7 0 -7 -3 -11
-6 -7 -4 3 -28 -5 -55 -19 -27 -13 -49 -22 -49 -20 0 2 -24 -5 -52 -16 -29
-11 -61 -22 -70 -25 -10 -3 -18 -10 -18 -15 0 -17 -33 -44 -37 -31 -8 23 -30
2 -25 -23 3 -19 1 -23 -12 -18 -9 3 -16 10 -16 15 0 17 -45 8 -105 -21 -60
-29 -60 -29 -24 -30 19 0 39 -4 45 -9 5 -6 21 -12 35 -15 15 -2 64 -22 110
-44 139 -66 175 -82 187 -82 7 0 12 -4 12 -10 0 -5 11 -10 25 -10 14 0 25 -5
25 -10 0 -8 35 -29 60 -35 3 0 16 -7 30 -14 82 -45 126 -68 130 -68 3 1 17 -7
32 -17 15 -10 33 -19 41 -20 8 -1 22 -8 31 -15 8 -7 20 -10 26 -6 5 3 10 1 10
-5 0 -8 71 -47 100 -55 20 -5 126 -60 128 -67 2 -4 11 -8 19 -8 8 0 45 -15 82
-34 135 -70 286 -141 299 -139 7 0 11 -1 8 -4 -3 -3 25 -19 62 -36 37 -16 76
-34 87 -40 51 -27 161 -81 171 -83 6 -1 29 -14 52 -28 23 -14 50 -26 61 -26
11 0 21 -4 23 -8 3 -8 151 -82 163 -82 3 0 18 -9 34 -20 15 -12 37 -22 49 -23
12 -1 22 -5 22 -9 0 -4 5 -8 11 -8 6 0 52 -20 102 -44 109 -52 146 -66 175
-69 12 0 19 -3 17 -5 -2 -2 4 -11 13 -21 16 -16 19 -16 42 -2 24 15 25 15 10
-4 -13 -19 -13 -19 10 1 14 11 40 27 58 34 17 7 32 16 32 21 0 5 6 9 13 9 14
0 139 59 147 70 7 9 116 60 129 60 5 0 23 11 39 25 16 14 40 26 53 28 13 2 25
9 27 15 2 7 8 9 14 6 5 -4 23 3 39 15 15 11 34 21 42 21 7 0 19 6 26 13 6 6
15 12 19 13 12 1 66 23 82 33 16 10 64 34 188 92 39 18 72 36 72 40 0 3 6 6
14 6 14 0 137 60 146 72 3 3 14 8 25 9 11 2 36 12 55 22 46 25 374 183 380
184 16 3 208 101 224 115 10 9 19 15 20 13 3 -7 165 68 461 214 72 35 137 64
145 65 18 0 -22 17 -57 24 -15 2 -30 10 -35 17 -4 7 -8 9 -8 3 0 -5 -4 -5 -8
2 -6 10 -155 75 -272 118 -19 8 -56 22 -82 33 -25 11 -49 18 -52 15 -3 -4 -6
0 -6 7 0 7 -3 11 -6 7 -4 -3 -12 0 -19 7 -13 13 -296 142 -325 148 -8 2 -17 6
-20 10 -3 3 -61 32 -130 63 -69 32 -194 91 -277 131 -84 41 -155 74 -158 74
-3 0 -121 54 -263 121 -141 66 -275 128 -297 136 -22 9 -98 44 -170 78 -178
86 -228 108 -242 108 -7 0 -10 3 -8 7 2 4 -13 16 -33 27 l-37 21 -28 -29z"/>
<path d="M2443 6773 c4 -87 7 -752 7 -1479 l0 -1321 73 -28 c39 -15 142 -64
227 -108 281 -145 424 -219 506 -262 63 -33 85 -41 94 -32 10 9 12 8 7 -4 -4
-13 25 -33 131 -90 172 -92 360 -191 432 -226 30 -16 57 -31 58 -35 2 -5 8 -8
13 -8 6 0 62 -30 127 -66 64 -37 164 -90 222 -118 138 -68 364 -191 415 -226
22 -15 85 -51 140 -80 55 -29 106 -57 113 -62 9 -8 12 183 11 948 -1 528 -5
946 -9 929 -6 -23 -8 -25 -9 -9 -1 26 -19 34 -76 34 -24 0 -45 4 -47 9 -1 5
-52 12 -111 15 -162 10 -197 19 -229 57 -15 18 -25 36 -22 41 6 9 -31 11 -63
2 -33 -9 -37 -33 -9 -59 22 -20 23 -26 15 -75 -13 -86 -58 -207 -124 -340
-108 -215 -152 -256 -303 -284 -135 -25 -267 -21 -358 9 -42 14 -80 22 -86 19
-6 -4 -9 -3 -6 2 3 5 -1 16 -10 24 -14 13 -15 12 -9 -3 5 -14 0 -17 -37 -17
-25 0 -46 4 -48 8 -1 4 -20 18 -40 30 -45 28 -93 99 -116 172 -22 71 -21 268
1 395 17 93 26 181 52 495 28 328 75 466 218 633 105 122 276 203 455 214 68
4 92 9 92 19 0 11 20 14 85 14 96 0 145 -17 145 -50 0 -11 7 -20 15 -20 8 0
16 -7 16 -15 1 -8 2 -20 3 -27 0 -6 15 -17 33 -25 28 -11 32 -11 27 2 -4 8 -1
15 6 15 18 0 57 -34 53 -46 -2 -5 8 -21 22 -34 20 -19 27 -21 40 -10 18 15 20
57 3 62 -9 3 -8 10 5 23 15 14 28 16 69 12 29 -4 57 -2 63 3 7 6 30 0 65 -16
82 -38 48 -13 -60 43 -52 28 -124 66 -160 86 -36 20 -106 51 -156 70 -50 19
-128 54 -175 77 -46 24 -138 67 -204 95 -161 71 -652 306 -845 404 -85 43
-221 109 -302 145 -179 80 -350 165 -401 200 -21 14 -41 26 -44 26 -3 0 -3
-71 0 -157z m2284 -959 c-3 -3 -12 -4 -19 -1 -8 3 -5 6 6 6 11 1 17 -2 13 -5z
m-283 -23 c4 -5 -3 -7 -14 -4 -23 6 -26 13 -6 13 8 0 17 -4 20 -9z m141 -73
c5 4 5 1 1 -6 -6 -10 -11 -10 -22 -1 -8 6 -14 14 -14 16 0 3 6 0 13 -6 8 -6
18 -7 22 -3z"/>
<path d="M7710 6885 c-98 -52 -1059 -525 -1065 -525 -5 0 -368 -171 -555 -262
-80 -39 -165 -78 -190 -88 -122 -48 -404 -196 -485 -255 -49 -35 -91 -68 -93
-73 -1 -5 70 -16 159 -26 l161 -17 45 46 c73 74 190 122 353 145 39 6 84 17
100 25 33 17 118 19 204 5 69 -11 166 -54 228 -101 72 -54 175 -185 223 -284
57 -116 73 -204 85 -465 13 -270 26 -411 50 -544 11 -60 20 -130 20 -156 0
-110 -63 -253 -144 -328 -41 -38 -156 -104 -173 -100 -5 1 -51 -2 -103 -6 -64
-5 -116 -4 -160 4 -36 7 -80 12 -99 11 -18 -1 -70 11 -115 26 -141 49 -185
109 -321 443 -37 91 -70 168 -73 172 -4 4 -108 12 -232 18 -124 6 -240 12
-258 13 l-33 2 1 -965 c0 -530 2 -965 3 -967 2 -1 14 3 27 10 14 7 54 25 90
41 36 16 112 56 170 91 58 34 202 113 320 175 118 62 231 123 250 135 19 12
127 70 240 130 113 59 255 136 315 170 158 89 374 205 495 265 58 29 139 72
180 95 85 49 411 200 453 210 l27 7 0 1484 c0 816 -3 1484 -7 1484 -5 0 -46
-21 -93 -45z"/>
<path d="M4480 5756 c0 -2 7 -7 16 -10 8 -3 12 -2 9 4 -6 10 -25 14 -25 6z"/>
<path d="M4602 5664 c8 -9 23 -14 33 -12 12 2 7 7 -16 15 -30 12 -32 11 -17
-3z"/>
<path d="M4848 5673 c12 -2 30 -2 40 0 9 3 -1 5 -23 4 -22 0 -30 -2 -17 -4z"/>
<path d="M6100 5649 c-61 -18 -110 -79 -110 -137 0 -37 35 -90 79 -119 87 -59
206 1 227 114 17 91 -94 171 -196 142z"/>
<path d="M4010 5503 l0 -148 -156 3 c-141 3 -156 1 -150 -13 3 -9 6 -66 6
-126 l0 -109 149 0 c113 0 149 -3 148 -12 0 -7 1 -80 1 -161 l2 -149 114 4
c63 1 118 7 123 11 4 5 9 75 11 155 l3 147 136 -3 c79 -2 139 0 145 6 5 5 12
65 15 132 l6 122 -145 -3 -146 -4 -7 140 c-5 86 -12 143 -19 147 -6 4 -62 8
-123 8 l-113 0 0 -147z"/>
<path d="M5750 5348 c-34 -17 -51 -35 -68 -70 -31 -61 -23 -107 28 -161 31
-34 44 -40 88 -45 163 -15 238 194 100 278 -43 26 -93 25 -148 -2z"/>
<path d="M6381 5348 c-53 -26 -75 -71 -69 -139 9 -86 69 -139 159 -139 36 0
48 6 78 38 62 65 70 138 24 209 -36 55 -117 68 -192 31z"/>
<path d="M6068 5039 c-52 -27 -72 -61 -72 -124 -1 -42 4 -59 28 -89 31 -41 78
-66 124 -66 40 0 117 54 133 93 18 42 15 112 -6 143 -41 62 -134 82 -207 43z"/>
<path d="M3485 4009 c14 -24 38 -49 47 -49 18 0 7 20 -24 41 -17 13 -28 17
-23 8z"/>
</g>
</svg>
