<?xml version="1.0" standalone="no"?>
<!DOCTYPE svg PUBLIC "-//W3C//DTD SVG 20010904//EN"
 "http://www.w3.org/TR/2001/REC-SVG-20010904/DTD/svg10.dtd">
<svg version="1.0" xmlns="http://www.w3.org/2000/svg"
 width="1024.000000pt" height="1024.000000pt" viewBox="0 0 1024.000000 1024.000000"
 preserveAspectRatio="xMidYMid meet">

<g transform="translate(0.000000,1024.000000) scale(0.100000,-0.100000)"
fill="#000000" stroke="none">
<path d="M5105 8364 c-73 -19 -771 -255 -1085 -367 -85 -30 -240 -85 -345
-120 -340 -116 -375 -134 -375 -183 0 -36 55 -91 108 -108 26 -8 108 -31 182
-51 74 -20 194 -54 266 -76 154 -46 164 -47 164 -16 0 13 14 51 31 85 33 68
98 132 175 174 124 67 540 187 798 229 124 20 148 21 221 11 208 -30 683 -170
818 -240 94 -48 160 -110 196 -184 17 -34 31 -70 31 -80 0 -17 5 -19 33 -13
29 6 123 34 233 70 l41 13 7 -127 c4 -69 9 -134 12 -143 4 -14 0 -18 -17 -18
-31 0 -95 -46 -119 -85 -45 -72 -9 -204 62 -227 7 -3 7 -16 -1 -43 -12 -44
-56 -298 -66 -387 -6 -51 -4 -63 19 -103 47 -80 98 -88 158 -23 l39 42 38 -42
c59 -65 115 -52 161 37 15 29 9 139 -20 366 -19 147 -19 150 -1 165 58 46 76
131 42 199 -21 41 -83 101 -105 101 -10 0 -12 37 -9 172 l3 173 61 20 c80 27
109 53 109 99 0 48 -37 82 -105 96 -26 5 -31 13 -47 68 -22 72 -63 111 -128
119 -32 5 -48 1 -79 -20 -22 -15 -42 -36 -46 -47 -5 -15 -12 -19 -23 -15 -63
26 -535 198 -892 325 -408 145 -489 168 -545 154z"/>
<path d="M4985 7760 c-55 -9 -143 -29 -196 -43 -110 -31 -417 -136 -473 -162
-59 -28 -112 -84 -125 -131 -18 -68 -41 -235 -41 -302 0 -75 22 -104 91 -122
102 -25 285 -86 434 -145 226 -89 405 -145 463 -145 57 0 177 34 322 90 207
81 403 151 538 191 75 23 143 46 150 51 21 18 15 162 -13 272 -27 110 -57 163
-113 204 -76 54 -271 132 -483 191 -264 74 -368 84 -554 51z"/>
<path d="M3897 6959 c-106 -70 -307 -386 -372 -584 -79 -239 -109 -452 -102
-700 7 -194 23 -290 78 -468 67 -218 236 -509 386 -665 65 -68 73 -80 69 -107
-3 -16 -10 -93 -16 -170 -6 -77 -22 -227 -36 -334 -39 -309 -31 -384 44 -454
59 -56 132 -55 234 6 48 28 568 409 664 486 60 48 61 48 112 40 182 -28 417
-18 620 27 141 32 224 61 358 125 316 150 594 440 774 804 44 88 90 198 104
245 59 206 87 495 68 696 -11 110 -30 204 -42 204 -4 0 -29 -7 -56 -15 -27 -8
-80 -15 -118 -15 -66 0 -68 -1 -63 -22 3 -13 11 -90 17 -172 23 -311 -28 -592
-152 -840 -61 -122 -97 -179 -176 -277 -272 -337 -661 -519 -1111 -519 -75 0
-176 7 -226 15 -138 23 -137 23 -228 -50 -45 -36 -139 -107 -209 -157 -69 -51
-172 -128 -227 -170 -55 -43 -105 -78 -111 -78 -12 0 -12 1 0 92 5 40 17 183
25 318 9 135 20 268 26 295 l10 50 -58 50 c-100 86 -199 192 -249 267 -195
291 -279 609 -254 964 12 161 73 418 131 551 60 139 161 297 241 381 l41 43
-48 70 c-42 62 -78 99 -96 99 -3 0 -26 -14 -52 -31z"/>
<path d="M4323 5932 c-56 -23 -101 -67 -129 -127 -75 -158 44 -355 215 -355
87 0 180 61 220 143 29 59 29 164 0 223 -50 105 -197 160 -306 116z"/>
<path d="M5071 5933 c-149 -53 -199 -264 -95 -400 59 -77 186 -106 279 -62 53
25 89 65 121 134 60 127 -2 276 -133 325 -63 23 -111 24 -172 3z"/>
<path d="M5855 5941 c-92 -25 -156 -84 -180 -164 -19 -63 -19 -91 0 -153 19
-65 63 -116 127 -148 158 -79 339 36 341 218 1 69 -14 105 -70 167 -61 67
-147 99 -218 80z"/>
</g>
</svg>
