<svg width="112" height="40" viewBox="0 0 112 40" fill="none" xmlns="http://www.w3.org/2000/svg">
<path d="M12.6942 5.36129C12.1534 5.36129 11.4938 6.09334 11.0497 7.05772L6.65711 16.4911H6.34931L2.11058 8.101C1.3367 6.40457 0.483673 5.36129 0 5.36129V5.15088H4.60369V5.36129C4.39263 5.36129 4.27391 5.59362 4.27391 5.97937C4.27391 6.40457 4.42781 7.04018 4.77518 7.77224L7.73438 13.541L10.5573 7.61881C10.7903 7.05772 10.9046 6.558 10.9046 6.17224C10.9046 5.67252 10.7112 5.36129 10.421 5.36129V5.15088H12.6854V5.36129H12.6942Z" fill="white"/>
<path d="M17.9758 16.2805V16.4909H13.3721V16.2805C13.9349 16.2805 14.3966 15.6843 14.3966 13.9835V8.92927C14.3966 6.65421 13.9701 6.6323 13.3721 6.6323V6.42189C13.8733 6.3649 14.5725 6.22901 15.3068 5.92216C15.9443 5.68984 16.3884 5.42244 16.7578 5.15066H16.9513V13.9879C16.9513 14.8383 17.0656 15.4169 17.259 15.7632C17.4349 16.1314 17.6856 16.2849 17.9758 16.2849V16.2805ZM15.6541 3.45423C14.7044 3.45423 13.9305 2.66519 13.9305 1.71835C13.9305 0.771503 14.7044 0 15.6541 0C16.6039 0 17.3954 0.771503 17.3954 1.71835C17.3954 2.66519 16.6039 3.45423 15.6541 3.45423Z" fill="white"/>
<path d="M29.0431 13.6766C28.2868 15.1232 26.3521 16.4908 24.1668 16.4908C20.7019 16.4908 18.5342 13.944 18.5342 10.8185C18.5342 7.69308 20.526 5.14624 24.1448 5.14624C25.4023 5.14624 28.6342 5.70733 28.6342 8.32869C28.6342 11.4717 22.5575 11.7259 21.0493 11.761C21.6869 13.8651 23.3709 15.0793 25.3276 15.0793H25.6002C27.359 14.9829 28.4627 14.2684 28.9683 13.5933L29.0475 13.6722L29.0431 13.6766ZM20.8382 10.0514C20.8382 10.5511 20.8954 11.0553 21.0141 11.5944C23.9953 10.8405 26.3917 9.60868 26.3917 7.65801C26.3917 5.96158 25.1737 5.40049 24.1272 5.40049C22.4827 5.40049 20.8382 7.34678 20.8382 10.0514Z" fill="white"/>
<path d="M47.6943 5.15088V5.36129C47.1315 5.36129 46.4763 6.09334 46.0322 7.05772L41.6572 16.4911H41.3494L38.2935 10.433L35.4882 16.4911H35.1804L30.9416 8.101C30.5547 7.25059 30.1502 6.57553 29.7808 6.09334C29.3939 5.62868 29.0641 5.36129 28.8311 5.36129V5.15088H33.4347V5.36129C33.2237 5.36129 33.105 5.59362 33.105 5.97937C33.105 6.42211 33.2589 7.05772 33.6062 7.77224L36.5654 13.541L38.1528 10.1832L37.1063 8.101C36.7193 7.25059 36.3148 6.57553 35.9455 6.09334C35.5585 5.62868 35.2287 5.36129 34.9781 5.36129V5.15088H39.6038V5.36129C39.5466 5.36129 39.4895 5.37882 39.4499 5.41827C39.3356 5.51471 39.274 5.70759 39.274 5.97937C39.274 6.30813 39.3532 6.73334 39.5246 7.21553L39.639 7.50484C39.6785 7.58374 39.7181 7.68018 39.7753 7.77662L42.7345 13.5454L45.5398 7.6232C45.7904 7.0621 45.8871 6.57991 45.8871 6.19416C45.8871 5.67252 45.7113 5.36567 45.4035 5.36567V5.15526H47.6855L47.6943 5.15088Z" fill="white"/>
<path d="M1.72526 34.1783C1.53619 34.1783 1.43945 34.0818 1.43945 33.8933V23.1098C1.43945 22.9213 1.53619 22.8249 1.72526 22.8249H3.79187C3.99853 22.8249 4.09966 22.9213 4.09966 23.1098L4.16561 24.4687C4.56135 23.8682 5.0802 23.4079 5.72656 23.0879C6.37292 22.7679 7.05446 22.6057 7.77118 22.6057C8.61981 22.6057 9.35411 22.7854 9.9697 23.1449C10.5853 23.5043 11.047 24.0172 11.3548 24.6879C11.7637 24.0172 12.3133 23.5 13.0036 23.1449C13.694 22.7854 14.4415 22.6057 15.2461 22.6057C16.4905 22.6057 17.471 22.9783 18.179 23.7235C18.8913 24.4687 19.243 25.4901 19.243 26.792V33.8933C19.243 34.0818 19.1463 34.1783 18.9572 34.1783H16.6708C16.4817 34.1783 16.385 34.0818 16.385 33.8933V27.9536C16.385 26.1125 15.7122 25.192 14.3623 25.192C13.6456 25.192 13.03 25.4682 12.5244 26.0249C12.0187 26.5816 11.7681 27.3706 11.7681 28.392V33.8933C11.7681 34.0818 11.6713 34.1783 11.4823 34.1783H9.19582C9.00675 34.1783 8.91001 34.0818 8.91001 33.8933V27.9536C8.91001 26.1125 8.23726 25.192 6.88738 25.192C6.17066 25.192 5.55507 25.4682 5.04942 26.0249C4.54376 26.5816 4.29313 27.3706 4.29313 28.392V33.8933C4.29313 34.0818 4.19639 34.1783 4.00732 34.1783H1.72526Z" fill="white"/>
<path d="M22.628 38.9564C22.5269 38.9564 22.4565 38.9257 22.4214 38.8687C22.3862 38.8117 22.3818 38.7284 22.4082 38.6276L24.4968 33.455L19.9239 23.1537C19.8931 23.0967 19.8799 23.0529 19.8799 23.0222C19.8799 22.8907 19.9678 22.825 20.1437 22.825H22.8699C23.0326 22.825 23.1425 22.8995 23.1996 23.0441L25.9698 30.014L28.6739 23.0441C28.7311 22.8995 28.841 22.825 29.0037 22.825H31.51C31.6112 22.825 31.6859 22.8556 31.7299 22.9126C31.7739 22.9696 31.7739 23.0529 31.7299 23.1537L25.3542 38.7372C25.297 38.8819 25.1871 38.9564 25.0244 38.9564H22.628Z" fill="white"/>
<path d="M37.1949 33.6172C36.3507 33.0999 35.7483 32.3503 35.3833 31.3728C35.3701 31.3421 35.3613 31.307 35.3613 31.2632C35.3613 31.1448 35.4361 31.0659 35.5812 31.0221L37.5818 30.4742L37.6698 30.4522C37.8017 30.4522 37.8896 30.518 37.9336 30.6495C38.1842 31.0879 38.4964 31.4035 38.879 31.592C39.2615 31.7805 39.7056 31.8769 40.2201 31.8769C41.3325 31.8769 41.8909 31.6007 41.8909 31.044C41.8909 30.8117 41.7678 30.6144 41.5172 30.4522C41.2665 30.29 40.8268 30.1235 40.1981 29.9481L39.6484 29.7947C38.3293 29.4309 37.3708 28.9224 36.7684 28.2692C36.166 27.6205 35.867 26.8402 35.867 25.9372C35.867 25.2928 36.0517 24.7186 36.4166 24.2145C36.7816 23.7104 37.2916 23.3158 37.9424 23.0309C38.5931 22.746 39.345 22.6013 40.1937 22.6013C41.3061 22.6013 42.2427 22.838 42.999 23.3115C43.7553 23.7849 44.3093 24.4994 44.6611 25.4506C44.6742 25.4813 44.683 25.5251 44.683 25.5821C44.683 25.7005 44.6171 25.7706 44.4852 25.8013L42.4845 26.4369C42.4537 26.4501 42.4098 26.4588 42.3526 26.4588C42.2647 26.4588 42.1855 26.4018 42.1108 26.2835C41.6711 25.5076 41.0203 25.1219 40.1541 25.1219C39.7452 25.1219 39.4198 25.1876 39.178 25.3191C38.9361 25.4506 38.813 25.6566 38.813 25.9328C38.813 26.1958 38.9493 26.4106 39.2175 26.5772C39.4901 26.7438 39.9386 26.9103 40.5718 27.0681L41.0995 27.1997C42.4625 27.5372 43.4255 28.0018 43.9883 28.6024C44.5511 29.2029 44.8369 29.992 44.8369 30.9695C44.8369 31.947 44.4148 32.8194 43.5706 33.4462C42.7264 34.073 41.6447 34.3887 40.3256 34.3887C39.0812 34.3887 38.0347 34.13 37.1949 33.6084V33.6172Z" fill="white"/>
<path d="M48.257 33.2358C47.6063 32.4599 47.2809 31.3158 47.2809 29.7947V25.3674H45.61C45.421 25.3674 45.3242 25.2709 45.3242 25.0824V23.1098C45.3242 22.9213 45.421 22.8249 45.61 22.8249H47.2809V19.7783C47.2809 19.5898 47.3776 19.4934 47.5667 19.4934H49.8532C50.0422 19.4934 50.139 19.5898 50.139 19.7783V22.8249H52.8431C53.0322 22.8249 53.1289 22.9213 53.1289 23.1098V25.0824C53.1289 25.2709 53.0322 25.3674 52.8431 25.3674H50.139V29.9701C50.139 30.5838 50.2401 31.044 50.4468 31.3509C50.6534 31.6577 50.9744 31.8112 51.4141 31.8112C51.7791 31.8112 52.0649 31.627 52.2715 31.2632C52.3727 31.0879 52.5046 31.044 52.6673 31.1317L54.3821 31.8988C54.4832 31.9427 54.536 32.0216 54.536 32.1399C54.536 32.1969 54.514 32.2714 54.47 32.3591C54.0875 33.0605 53.6038 33.5777 53.019 33.9065C52.4342 34.2353 51.7966 34.3974 51.1063 34.3974C49.862 34.3974 48.9122 34.0117 48.257 33.2358Z" fill="white"/>
<path d="M56.9272 33.6522C56.1226 33.1569 55.5026 32.4599 55.0673 31.5701C54.6364 30.6802 54.4209 29.6544 54.4209 28.5016C54.4209 27.3487 54.6364 26.323 55.0673 25.4331C55.4982 24.5432 56.1182 23.8463 56.9272 23.3509C57.7319 22.8556 58.6728 22.6057 59.7413 22.6057C60.5328 22.6057 61.2495 22.7591 61.8871 23.066C62.5246 23.3728 63.0479 23.8112 63.4612 24.381L63.5272 23.1098C63.5272 22.9213 63.6283 22.8249 63.8349 22.8249H65.9015C66.0906 22.8249 66.1874 22.9213 66.1874 23.1098V33.8933C66.1874 34.0818 66.0906 34.1783 65.9015 34.1783H63.8349C63.6283 34.1783 63.5272 34.0818 63.5272 33.8933L63.4612 32.6221C63.0523 33.192 62.529 33.6303 61.8871 33.9372C61.2495 34.244 60.5372 34.3974 59.7413 34.3974C58.6728 34.3974 57.7319 34.1476 56.9272 33.6522ZM62.6653 30.8906C63.2369 30.2769 63.5228 29.4791 63.5228 28.5016C63.5228 27.524 63.2369 26.7262 62.6653 26.1125C62.0937 25.4988 61.355 25.192 60.4448 25.192C59.5346 25.192 58.7959 25.4988 58.2243 26.1125C57.6527 26.7262 57.3669 27.524 57.3669 28.5016C57.3669 29.4791 57.6527 30.2769 58.2243 30.8906C58.7959 31.5043 59.5346 31.8111 60.4448 31.8111C61.355 31.8111 62.0937 31.5043 62.6653 30.8906Z" fill="white"/>
<path d="M68.6882 34.1784C68.4991 34.1784 68.4023 34.082 68.4023 33.8935V23.11C68.4023 22.9215 68.4991 22.8251 68.6882 22.8251H70.7548C70.9614 22.8251 71.0625 22.9215 71.0625 23.11L71.1285 24.5346C71.511 23.9341 72.0079 23.4738 72.6235 23.1538C73.2391 22.8338 73.8986 22.6716 74.6022 22.6716C74.8968 22.6716 75.1518 22.6935 75.3716 22.7374C75.5343 22.7812 75.6135 22.882 75.6135 23.0442V25.3018C75.6135 25.4639 75.5343 25.5428 75.3716 25.5428C75.2265 25.5428 75.0463 25.5297 74.8308 25.499C74.6153 25.4683 74.4263 25.4552 74.246 25.4552C73.7184 25.4552 73.2259 25.5691 72.773 25.7971C72.3201 26.025 71.9507 26.3538 71.6737 26.7922C71.3967 27.2305 71.256 27.7346 71.256 28.3045V33.8935C71.256 34.082 71.1593 34.1784 70.9702 34.1784H68.6838H68.6882Z" fill="white"/>
<path d="M79.0359 33.2358C78.3851 32.4599 78.0553 31.3158 78.0553 29.7947V25.3674H76.3844C76.1954 25.3674 76.0986 25.2709 76.0986 25.0824V23.1098C76.0986 22.9213 76.1954 22.8249 76.3844 22.8249H78.0553V19.7783C78.0553 19.5898 78.152 19.4934 78.3411 19.4934H80.6276C80.8166 19.4934 80.9134 19.5898 80.9134 19.7783V22.8249H83.6176C83.8066 22.8249 83.9034 22.9213 83.9034 23.1098V25.0824C83.9034 25.2709 83.8066 25.3674 83.6176 25.3674H80.9134V29.9701C80.9134 30.5838 81.0145 31.044 81.2212 31.3509C81.4278 31.6577 81.7488 31.8112 82.1885 31.8112C82.5535 31.8112 82.8393 31.627 83.0459 31.2632C83.1471 31.0879 83.279 31.044 83.4417 31.1317L85.1565 31.8988C85.2577 31.9427 85.3104 32.0216 85.3104 32.1399C85.3104 32.1969 85.2884 32.2714 85.2445 32.3591C84.8619 33.0605 84.3782 33.5777 83.7934 33.9065C83.2086 34.2353 82.5711 34.3974 81.8807 34.3974C80.6364 34.3974 79.6866 34.0117 79.0315 33.2358H79.0359Z" fill="white"/>
<path d="M87.0782 33.2885C86.3527 32.552 85.9922 31.5263 85.9922 30.2112V23.1099C85.9922 22.9214 86.0889 22.825 86.278 22.825H88.5644C88.7535 22.825 88.8503 22.9214 88.8503 23.1099V29.0496C88.8503 30.0008 89.0261 30.6978 89.3779 31.1449C89.7297 31.592 90.2793 31.8112 91.0268 31.8112C91.7743 31.8112 92.4119 31.535 92.9395 30.9783C93.4671 30.4216 93.731 29.6326 93.731 28.6112V23.1099C93.731 22.9214 93.8277 22.825 94.0168 22.825H96.3032C96.4923 22.825 96.589 22.9214 96.589 23.1099V33.8934C96.589 34.0819 96.4923 34.1783 96.3032 34.1783H94.2366C94.03 34.1783 93.9288 34.0819 93.9288 33.8934L93.8629 32.6002C93.4539 33.1833 92.9175 33.6304 92.258 33.9372C91.5984 34.2441 90.8949 34.3975 90.1474 34.3975C88.8283 34.3975 87.8082 34.0293 87.0826 33.2885H87.0782Z" fill="white"/>
<path d="M99.0944 38.9563C98.9053 38.9563 98.8086 38.8599 98.8086 38.6714V23.1098C98.8086 22.9213 98.9053 22.8249 99.0944 22.8249H101.161C101.368 22.8249 101.469 22.9213 101.469 23.1098L101.535 24.381C101.944 23.8112 102.467 23.3728 103.104 23.066C103.742 22.7591 104.459 22.6057 105.25 22.6057C106.319 22.6057 107.26 22.8556 108.064 23.3509C108.869 23.8463 109.489 24.5432 109.92 25.4331C110.351 26.323 110.571 27.3487 110.571 28.5016C110.571 29.6544 110.355 30.6802 109.92 31.5701C109.489 32.4599 108.869 33.1569 108.064 33.6522C107.26 34.1476 106.319 34.3974 105.25 34.3974C104.516 34.3974 103.843 34.2572 103.228 33.981C102.612 33.7048 102.093 33.3103 101.667 32.7974V38.6714C101.667 38.8599 101.57 38.9563 101.381 38.9563H99.0944ZM106.767 30.8906C107.339 30.2769 107.625 29.4791 107.625 28.5016C107.625 27.524 107.339 26.7262 106.767 26.1125C106.196 25.4988 105.457 25.192 104.547 25.192C103.637 25.192 102.898 25.4988 102.326 26.1125C101.755 26.7262 101.469 27.524 101.469 28.5016C101.469 29.4791 101.755 30.2769 102.326 30.8906C102.898 31.5043 103.637 31.8111 104.547 31.8111C105.457 31.8111 106.196 31.5043 106.767 30.8906Z" fill="white"/>
</svg>
