<svg width="64" height="23" viewBox="0 0 64 23" fill="none" xmlns="http://www.w3.org/2000/svg">
<g clip-path="url(#clip0_1_7696)">
<path d="M7.29918 3.08266C6.9882 3.08266 6.60896 3.50359 6.3536 4.0581L3.82784 9.48229H3.65086L1.21358 4.65799C0.768601 3.68254 0.278112 3.08266 0 3.08266V2.96167H2.64712V3.08266C2.52576 3.08266 2.4575 3.21624 2.4575 3.43805C2.4575 3.68254 2.54599 4.04802 2.74573 4.46895L4.44727 7.78597L6.07043 4.38073C6.20443 4.0581 6.27017 3.77076 6.27017 3.54895C6.27017 3.26161 6.15892 3.08266 5.99205 3.08266V2.96167H7.29413V3.08266H7.29918Z" fill="white"/>
<path d="M10.3346 9.36127V9.48225H7.6875V9.36127C8.01112 9.36127 8.27659 9.01848 8.27659 8.04051V5.13433C8.27659 3.82617 8.03135 3.81357 7.6875 3.81357V3.69258C7.97573 3.65982 8.37772 3.58168 8.79995 3.40524C9.16655 3.27166 9.42191 3.1179 9.63429 2.96163H9.74553V8.04303C9.74553 8.53201 9.81127 8.86472 9.92251 9.06385C10.0236 9.27557 10.1678 9.36379 10.3346 9.36379V9.36127ZM8.99968 1.98618C8.45357 1.98618 8.00859 1.53249 8.00859 0.98805C8.00859 0.443614 8.45357 0 8.99968 0C9.5458 0 10.0009 0.443614 10.0009 0.98805C10.0009 1.53249 9.5458 1.98618 8.99968 1.98618Z" fill="white"/>
<path d="M16.6998 7.86419C16.265 8.69597 15.1525 9.48237 13.896 9.48237C11.9037 9.48237 10.6572 8.01794 10.6572 6.2208C10.6572 4.42366 11.8025 2.95923 13.8833 2.95923C14.6064 2.95923 16.4647 3.28186 16.4647 4.78914C16.4647 6.59636 12.9706 6.74255 12.1034 6.76272C12.47 7.97257 13.4383 8.67076 14.5634 8.67076H14.7202C15.7315 8.61531 16.3661 8.20446 16.6569 7.8163L16.7024 7.86167L16.6998 7.86419ZM11.9821 5.77971C11.9821 6.06705 12.0149 6.35691 12.0832 6.66694C13.7974 6.2334 15.1753 5.52513 15.1753 4.4035C15.1753 3.42805 14.4749 3.10542 13.8732 3.10542C12.9276 3.10542 11.9821 4.22454 11.9821 5.77971Z" fill="white"/>
<path d="M27.4245 2.96167V3.08266C27.1009 3.08266 26.7242 3.50359 26.4688 4.0581L23.9532 9.48229H23.7762L22.019 5.99891L20.406 9.48229H20.229L17.7917 4.65799C17.5692 4.16901 17.3366 3.78084 17.1242 3.50358C16.9017 3.23641 16.7121 3.08266 16.5781 3.08266V2.96167H19.2252V3.08266C19.1039 3.08266 19.0356 3.21624 19.0356 3.43805C19.0356 3.69263 19.1241 4.0581 19.3239 4.46895L21.0254 7.78597L21.9381 5.85524L21.3364 4.65799C21.1139 4.16901 20.8813 3.78084 20.6689 3.50358C20.4464 3.23641 20.2568 3.08266 20.1127 3.08266V2.96167H22.7724V3.08266C22.7396 3.08266 22.7067 3.09274 22.684 3.11542C22.6182 3.17087 22.5828 3.28178 22.5828 3.43805C22.5828 3.62709 22.6283 3.87158 22.7269 4.14884L22.7927 4.3152C22.8154 4.36057 22.8382 4.41602 22.871 4.47147L24.5726 7.7885L26.1856 4.38325C26.3298 4.06062 26.3854 3.78336 26.3854 3.56156C26.3854 3.26161 26.2842 3.08518 26.1073 3.08518V2.96419H27.4194L27.4245 2.96167Z" fill="white"/>
<path d="M0.994417 19.6525C0.885701 19.6525 0.830078 19.5971 0.830078 19.4887V13.2882C0.830078 13.1798 0.885701 13.1243 0.994417 13.1243H2.18272C2.30155 13.1243 2.3597 13.1798 2.3597 13.2882L2.39762 14.0695C2.62517 13.7242 2.92351 13.4595 3.29516 13.2755C3.66682 13.0916 4.05871 12.9983 4.47082 12.9983C4.95878 12.9983 5.38101 13.1016 5.73497 13.3083C6.08893 13.515 6.3544 13.8099 6.53138 14.1955C6.76651 13.8099 7.08255 13.5125 7.47949 13.3083C7.87643 13.1016 8.30624 12.9983 8.76892 12.9983C9.48443 12.9983 10.0482 13.2125 10.4553 13.641C10.8649 14.0695 11.0671 14.6568 11.0671 15.4054V19.4887C11.0671 19.5971 11.0115 19.6525 10.9028 19.6525H9.58809C9.47937 19.6525 9.42375 19.5971 9.42375 19.4887V16.0733C9.42375 15.0147 9.03692 14.4854 8.26073 14.4854C7.84862 14.4854 7.49466 14.6442 7.20391 14.9643C6.91315 15.2844 6.76904 15.7381 6.76904 16.3254V19.4887C6.76904 19.5971 6.71342 19.6525 6.6047 19.6525H5.28999C5.18127 19.6525 5.12565 19.5971 5.12565 19.4887V16.0733C5.12565 15.0147 4.73882 14.4854 3.96263 14.4854C3.55052 14.4854 3.19656 14.6442 2.90581 14.9643C2.61505 15.2844 2.47094 15.7381 2.47094 16.3254V19.4887C2.47094 19.5971 2.41532 19.6525 2.3066 19.6525H0.994417Z" fill="white"/>
<path d="M13.0148 22.3998C12.9566 22.3998 12.9162 22.3822 12.8959 22.3494C12.8757 22.3167 12.8732 22.2688 12.8883 22.2108L14.0893 19.2366L11.4599 13.3133C11.4422 13.2805 11.4346 13.2553 11.4346 13.2377C11.4346 13.1621 11.4851 13.1243 11.5863 13.1243H13.1538C13.2474 13.1243 13.3106 13.1671 13.3434 13.2503L14.9363 17.2579L16.4912 13.2503C16.524 13.1671 16.5872 13.1243 16.6808 13.1243H18.1219C18.1801 13.1243 18.223 13.1419 18.2483 13.1747C18.2736 13.2074 18.2736 13.2553 18.2483 13.3133L14.5823 22.2738C14.5494 22.357 14.4862 22.3998 14.3927 22.3998H13.0148Z" fill="white"/>
<path d="M21.3902 19.33C20.9048 19.0325 20.5584 18.6015 20.3486 18.0394C20.341 18.0218 20.3359 18.0016 20.3359 17.9764C20.3359 17.9084 20.3789 17.863 20.4624 17.8378L21.6127 17.5227L21.6633 17.5101C21.7391 17.5101 21.7897 17.5479 21.815 17.6236C21.9591 17.8756 22.1386 18.0571 22.3586 18.1655C22.5785 18.2739 22.8339 18.3293 23.1297 18.3293C23.7694 18.3293 24.0905 18.1705 24.0905 17.8504C24.0905 17.7168 24.0197 17.6034 23.8755 17.5101C23.7314 17.4169 23.4786 17.3211 23.1171 17.2203L22.801 17.132C22.0425 16.9228 21.4914 16.6305 21.145 16.2549C20.7986 15.8819 20.6267 15.4332 20.6267 14.914C20.6267 14.5435 20.7329 14.2133 20.9427 13.9234C21.1526 13.6335 21.4459 13.4067 21.82 13.2429C22.1942 13.079 22.6266 12.9958 23.1145 12.9958C23.7542 12.9958 24.2927 13.132 24.7276 13.4042C25.1625 13.6764 25.481 14.0872 25.6833 14.6342C25.6909 14.6518 25.6959 14.677 25.6959 14.7098C25.6959 14.7779 25.658 14.8182 25.5821 14.8358L24.4318 15.2013C24.4141 15.2089 24.3888 15.2139 24.3559 15.2139C24.3054 15.2139 24.2598 15.1812 24.2169 15.1131C23.964 14.667 23.5899 14.4452 23.0918 14.4452C22.8566 14.4452 22.6696 14.483 22.5305 14.5586C22.3914 14.6342 22.3206 14.7527 22.3206 14.9115C22.3206 15.0627 22.399 15.1862 22.5533 15.282C22.71 15.3778 22.9679 15.4735 23.332 15.5643L23.6354 15.6399C24.4191 15.834 24.9728 16.1011 25.2965 16.4465C25.6201 16.7918 25.7844 17.2455 25.7844 17.8076C25.7844 18.3696 25.5417 18.8712 25.0563 19.2317C24.5708 19.5921 23.9489 19.7736 23.1904 19.7736C22.4749 19.7736 21.8731 19.6249 21.3902 19.3249V19.33Z" fill="white"/>
<path d="M27.7498 19.1106C27.3757 18.6645 27.1886 18.0066 27.1886 17.132V14.5863H26.2278C26.1191 14.5863 26.0635 14.5308 26.0635 14.4224V13.2882C26.0635 13.1798 26.1191 13.1243 26.2278 13.1243H27.1886V11.3726C27.1886 11.2642 27.2442 11.2087 27.3529 11.2087H28.6676C28.7763 11.2087 28.832 11.2642 28.832 11.3726V13.1243H30.3869C30.4956 13.1243 30.5512 13.1798 30.5512 13.2882V14.4224C30.5512 14.5308 30.4956 14.5863 30.3869 14.5863H28.832V17.2328C28.832 17.5857 28.8901 17.8503 29.0089 18.0268C29.1278 18.2032 29.3123 18.2914 29.5652 18.2914C29.775 18.2914 29.9394 18.1856 30.0582 17.9764C30.1163 17.8756 30.1922 17.8503 30.2857 17.9008L31.2718 18.3419C31.3299 18.3671 31.3602 18.4124 31.3602 18.4805C31.3602 18.5133 31.3476 18.5561 31.3223 18.6065C31.1024 19.0098 30.8243 19.3072 30.488 19.4963C30.1517 19.6853 29.7851 19.7786 29.3882 19.7786C28.6727 19.7786 28.1266 19.5568 27.7498 19.1106Z" fill="white"/>
<path d="M32.7351 19.35C32.2724 19.0652 31.9159 18.6645 31.6656 18.1528C31.4178 17.6411 31.2939 17.0513 31.2939 16.3884C31.2939 15.7255 31.4178 15.1357 31.6656 14.624C31.9134 14.1124 32.2699 13.7116 32.7351 13.4268C33.1978 13.142 33.7388 12.9983 34.3532 12.9983C34.8083 12.9983 35.2204 13.0865 35.587 13.2629C35.9536 13.4394 36.2545 13.6914 36.4921 14.0191L36.53 13.2882C36.53 13.1798 36.5882 13.1243 36.707 13.1243H37.8953C38.004 13.1243 38.0597 13.1798 38.0597 13.2882V19.4887C38.0597 19.5971 38.004 19.6525 37.8953 19.6525H36.707C36.5882 19.6525 36.53 19.5971 36.53 19.4887L36.4921 18.7577C36.257 19.0854 35.9561 19.3374 35.587 19.5139C35.2204 19.6903 34.8108 19.7785 34.3532 19.7785C33.7388 19.7785 33.1978 19.6349 32.7351 19.35ZM36.0345 17.7621C36.3632 17.4092 36.5275 16.9505 36.5275 16.3884C36.5275 15.8263 36.3632 15.3676 36.0345 15.0147C35.7058 14.6618 35.2811 14.4854 34.7577 14.4854C34.2344 14.4854 33.8096 14.6618 33.4809 15.0147C33.1522 15.3676 32.9879 15.8263 32.9879 16.3884C32.9879 16.9505 33.1522 17.4092 33.4809 17.7621C33.8096 18.115 34.2344 18.2914 34.7577 18.2914C35.2811 18.2914 35.7058 18.115 36.0345 17.7621Z" fill="white"/>
<path d="M39.4973 19.6525C39.3886 19.6525 39.333 19.5971 39.333 19.4887V13.2882C39.333 13.1798 39.3886 13.1244 39.4973 13.1244H40.6856C40.8045 13.1244 40.8626 13.1798 40.8626 13.2882L40.9005 14.1074C41.1205 13.762 41.4062 13.4974 41.7602 13.3134C42.1141 13.1294 42.4934 13.0361 42.8979 13.0361C43.0673 13.0361 43.2139 13.0487 43.3404 13.0739C43.4339 13.0991 43.4794 13.1571 43.4794 13.2504V14.5485C43.4794 14.6417 43.4339 14.6871 43.3404 14.6871C43.2569 14.6871 43.1533 14.6795 43.0294 14.6619C42.9055 14.6442 42.7968 14.6367 42.6931 14.6367C42.3897 14.6367 42.1065 14.7022 41.8461 14.8333C41.5857 14.9643 41.3733 15.1534 41.2141 15.4054C41.0548 15.6575 40.9739 15.9474 40.9739 16.275V19.4887C40.9739 19.5971 40.9182 19.6525 40.8095 19.6525H39.4948H39.4973Z" fill="white"/>
<path d="M45.4477 19.1106C45.0735 18.6645 44.8839 18.0066 44.8839 17.132V14.5863H43.9231C43.8144 14.5863 43.7588 14.5308 43.7588 14.4224V13.2882C43.7588 13.1798 43.8144 13.1243 43.9231 13.1243H44.8839V11.3726C44.8839 11.2642 44.9395 11.2087 45.0482 11.2087H46.3629C46.4716 11.2087 46.5273 11.2642 46.5273 11.3726V13.1243H48.0822C48.1909 13.1243 48.2465 13.1798 48.2465 13.2882V14.4224C48.2465 14.5308 48.1909 14.5863 48.0822 14.5863H46.5273V17.2328C46.5273 17.5857 46.5854 17.8503 46.7043 18.0268C46.8231 18.2032 47.0076 18.2914 47.2605 18.2914C47.4703 18.2914 47.6347 18.1856 47.7535 17.9764C47.8116 17.8756 47.8875 17.8503 47.981 17.9008L48.9671 18.3419C49.0252 18.3671 49.0556 18.4124 49.0556 18.4805C49.0556 18.5133 49.0429 18.5561 49.0176 18.6065C48.7977 19.0098 48.5196 19.3072 48.1833 19.4963C47.847 19.6853 47.4804 19.7786 47.0835 19.7786C46.368 19.7786 45.8219 19.5568 45.4452 19.1106H45.4477Z" fill="white"/>
<path d="M50.0727 19.1408C49.6556 18.7173 49.4482 18.1275 49.4482 17.3714V13.2881C49.4482 13.1797 49.5039 13.1243 49.6126 13.1243H50.9273C51.036 13.1243 51.0916 13.1797 51.0916 13.2881V16.7034C51.0916 17.2504 51.1928 17.6511 51.395 17.9082C51.5973 18.1653 51.9133 18.2914 52.3431 18.2914C52.7729 18.2914 53.1395 18.1326 53.4429 17.8125C53.7463 17.4924 53.898 17.0387 53.898 16.4514V13.2881C53.898 13.1797 53.9537 13.1243 54.0624 13.1243H55.3771C55.4858 13.1243 55.5414 13.1797 55.5414 13.2881V19.4886C55.5414 19.597 55.4858 19.6525 55.3771 19.6525H54.1888C54.07 19.6525 54.0118 19.597 54.0118 19.4886L53.9739 18.7451C53.7388 19.0803 53.4303 19.3374 53.0511 19.5138C52.6718 19.6903 52.2673 19.7785 51.8375 19.7785C51.079 19.7785 50.4924 19.5668 50.0753 19.1408H50.0727Z" fill="white"/>
<path d="M56.9798 22.3999C56.8711 22.3999 56.8154 22.3444 56.8154 22.2361V13.2882C56.8154 13.1798 56.8711 13.1243 56.9798 13.1243H58.1681C58.2869 13.1243 58.345 13.1798 58.345 13.2882L58.383 14.0191C58.6181 13.6914 58.919 13.4394 59.2856 13.2629C59.6522 13.0865 60.0643 12.9983 60.5194 12.9983C61.1338 12.9983 61.6748 13.142 62.1375 13.4268C62.6002 13.7116 62.9566 14.1124 63.2044 14.624C63.4522 15.1357 63.5786 15.7255 63.5786 16.3884C63.5786 17.0513 63.4547 17.6411 63.2044 18.1528C62.9566 18.6645 62.6002 19.0652 62.1375 19.35C61.6748 19.6349 61.1338 19.7785 60.5194 19.7785C60.0972 19.7785 59.7103 19.6979 59.3564 19.5391C59.0024 19.3803 58.7041 19.1534 58.4588 18.8585V22.2361C58.4588 22.3444 58.4032 22.3999 58.2945 22.3999H56.9798ZM61.3916 17.7621C61.7203 17.4092 61.8847 16.9505 61.8847 16.3884C61.8847 15.8263 61.7203 15.3676 61.3916 15.0147C61.063 14.6618 60.6382 14.4854 60.1148 14.4854C59.5915 14.4854 59.1667 14.6618 58.8381 15.0147C58.5094 15.3676 58.345 15.8263 58.345 16.3884C58.345 16.9505 58.5094 17.4092 58.8381 17.7621C59.1667 18.115 59.5915 18.2914 60.1148 18.2914C60.6382 18.2914 61.063 18.115 61.3916 17.7621Z" fill="white"/>
</g>
<defs>
<clipPath id="clip0_1_7696">
<rect width="64" height="23" fill="white"/>
</clipPath>
</defs>
</svg>
